<?xml version="1.0" standalone="no"?><!DOCTYPE svg PUBLIC "-//W3C//DTD SVG 1.1//EN" "http://www.w3.org/Graphics/SVG/1.1/DTD/svg11.dtd"><svg t="1778547958547" class="icon" viewBox="0 0 1024 1024" version="1.1" xmlns="http://www.w3.org/2000/svg" p-id="11699" xmlns:xlink="http://www.w3.org/1999/xlink" width="200" height="200"><path d="M841.142857 402.285714v73.142857c0 169.142857-128 308.553143-292.571428 326.838858V877.714286h146.285714c20.004571 0 36.571429 16.566857 36.571428 36.571428s-16.566857 36.571429-36.571428 36.571429H329.142857c-20.004571 0-36.571429-16.566857-36.571428-36.571429s16.566857-36.571429 36.571428-36.571428h146.285714v-75.446857c-164.571429-18.285714-292.571429-157.696-292.571428-326.838858v-73.142857c0-20.004571 16.566857-36.571429 36.571428-36.571428s36.571429 16.566857 36.571429 36.571428v73.142857c0 141.129143 114.870857 256 256 256s256-114.870857 256-256v-73.142857c0-20.004571 16.566857-36.571429 36.571429-36.571428s36.571429 16.566857 36.571428 36.571428z m-146.285714-219.428571v292.571428c0 100.571429-82.285714 182.857143-182.857143 182.857143s-182.857143-82.285714-182.857143-182.857143V182.857143c0-100.571429 82.285714-182.857143 182.857143-182.857143s182.857143 82.285714 182.857143 182.857143z" fill="" p-id="11700"></path></svg>